# xmcd CD database file
#
# Track frame offsets:
#	150
#	10411
#	23199
#	44426
#	64776
#	84737
#	90503
#	111223
#	128394
#	134485
#	156532
#
# Disc length: 2225 seconds
#
# Revision: 2
# Processed by: cddbd v1.5.1PL2 Copyright (c) Steve Scherf et al.
# Submitted via: CDex 1.51
#
DISCID=8f08af0b
DTITLE=Beequeen - The Bodyshop
DYEAR=2005
DGENRE=Jazz
TTITLE0=Swag Cave
TTITLE1=Sad Sheep
TTITLE2=The Dream-O-Phone
TTITLE3=Black Eyed Dog
TTITLE4=The Body Shop
TTITLE5=Penelope Patience
TTITLE6=On The Road To Everywhere
TTITLE7=Blackburn
TTITLE8=Admiration Of The Rod
TTITLE9=Buzzbag Drive
TTITLE10=The Last Song Of The Dodo
EXTD=YEAR: 2005
EXTT0=
EXTT1=
EXTT2=
EXTT3=
EXTT4=
EXTT5=
EXTT6=
EXTT7=
EXTT8=
EXTT9=
EXTT10=
PLAYORDER=
